<?xml version="1.0" standalone="no"?>
<!DOCTYPE svg PUBLIC "-//W3C//DTD SVG 20010904//EN"
 "http://www.w3.org/TR/2001/REC-SVG-20010904/DTD/svg10.dtd">
<svg version="1.0" xmlns="http://www.w3.org/2000/svg"
 width="962.000000pt" height="962.000000pt" viewBox="0 0 962.000000 962.000000"
 preserveAspectRatio="xMidYMid meet">
<metadata>
Created by potrace 1.14, written by Peter Selinger 2001-2017
</metadata>
<g transform="translate(0.000000,962.000000) scale(0.100000,-0.100000)"
fill="#000000" stroke="none">
<path d="M1520 9603 c-324 -31 -661 -216 -913 -501 -63 -71 -168 -227 -204
-302 -83 -174 -120 -282 -149 -435 -15 -83 -16 -358 -17 -3415 -1 -3101 1
-3331 17 -3413 25 -128 68 -243 157 -417 158 -307 317 -488 589 -669 140 -94
322 -167 565 -227 66 -16 263 -17 3210 -15 2610 2 3151 5 3210 17 333 65 550
180 797 424 108 107 152 159 212 253 141 217 215 387 268 617 l23 95 3 3300
c3 3020 1 3311 -14 3424 -26 198 -111 424 -220 586 -156 232 -375 430 -603
545 -110 55 -296 116 -394 129 -54 8 -1068 11 -3290 9 -1767 0 -3228 -3 -3247
-5z m2970 -485 c0 -7 2 -380 5 -828 3 -448 2 -849 -3 -890 l-7 -75 -186 -3
-187 -2 -5 42 c-7 67 -8 1754 0 1761 3 4 91 7 195 7 144 0 188 -3 188 -12z
m829 -2 c9 -10 9 -47 3 -142 -5 -71 -8 -462 -8 -869 1 -407 0 -749 -2 -760 -3
-17 -10 -20 -50 -17 -74 5 -75 6 -52 52 l20 40 -22 5 c-13 3 -75 6 -138 8
l-115 2 -6 800 c-3 440 -9 815 -13 833 -14 57 -6 60 193 61 143 1 180 -1 190
-13z m-1649 -880 c0 -486 -3 -891 -6 -900 -6 -15 -144 -16 -1464 -16 l-1457 0
-6 143 c-13 268 -8 735 7 822 28 153 72 263 154 388 52 80 193 227 262 274
117 79 292 146 430 162 36 5 518 9 1073 10 l1007 1 0 -884z m4390 857 c123
-35 185 -61 263 -112 72 -47 164 -127 156 -135 -11 -12 -107 18 -202 63 -114
55 -164 73 -242 89 -27 6 -63 14 -80 18 -16 4 -516 10 -1110 13 l-1080 6 -3
28 c-7 62 -96 58 1115 55 1099 -3 1109 -3 1183 -25z m-652 -2242 l1382 -1 0
-265 0 -265 -32 1 c-18 0 -55 4 -83 9 -27 4 -108 17 -180 29 -644 104 -1074
141 -1656 141 -332 0 -516 -9 -694 -35 -55 -8 -140 -19 -190 -25 -214 -25
-481 -83 -825 -179 -69 -19 -252 -82 -327 -112 -27 -11 -39 -11 -65 0 -99 41
-436 148 -588 186 -294 73 -656 130 -980 155 -174 13 -767 13 -980 0 -341 -21
-990 -97 -1233 -144 -43 -8 -112 -18 -153 -22 l-74 -7 2 264 3 264 135 5 c123
5 3061 5 6538 1z m-4390 -831 c233 -12 331 -22 552 -56 302 -48 443 -115 510
-244 50 -95 52 -271 9 -700 -14 -143 -50 -331 -80 -415 -22 -61 -27 -72 -66
-155 -71 -150 -176 -272 -321 -374 -193 -135 -535 -206 -922 -193 -265 10
-493 54 -638 123 -237 114 -405 327 -482 609 -54 197 -85 532 -78 856 4 188 4
196 32 257 38 82 111 150 202 186 128 52 402 90 754 105 263 12 314 12 528 1z
m4037 0 c401 -19 625 -54 752 -119 83 -41 147 -102 180 -169 28 -57 28 -58 31
-292 4 -231 -9 -502 -30 -630 -26 -167 -89 -351 -158 -470 -71 -121 -224 -267
-345 -328 -37 -18 -191 -70 -255 -86 -67 -17 -261 -37 -400 -42 -383 -15 -713
53 -913 189 -246 167 -406 474 -467 892 -29 202 -39 561 -19 657 43 203 169
280 559 342 354 57 682 74 1065 56z m-6024 -872 c0 -68 2 -132 4 -143 2 -11 8
-78 14 -150 9 -120 22 -201 41 -250 5 -11 16 -51 25 -90 33 -141 130 -341 244
-506 62 -89 251 -274 341 -334 193 -127 424 -215 660 -252 145 -22 668 -25
795 -5 158 26 438 108 534 157 101 51 254 154 327 220 82 75 209 225 268 317
142 223 242 539 291 922 l7 48 191 -5 c106 -3 193 -6 195 -6 1 -1 2 -20 2 -43
0 -72 57 -380 86 -473 56 -174 130 -335 207 -451 47 -71 185 -237 236 -284
155 -142 292 -224 506 -301 198 -71 310 -93 610 -120 214 -19 491 7 721 67
144 37 215 64 345 128 74 37 204 117 219 136 3 3 25 21 50 40 54 42 50 38 125
125 62 71 69 81 128 170 60 90 187 376 187 420 0 8 4 23 10 33 5 9 21 60 34
112 41 158 64 343 65 528 1 93 4 112 16 112 21 0 257 -59 264 -66 3 -3 7 -783
9 -1732 4 -1837 4 -1798 -45 -1957 -53 -171 -112 -279 -230 -427 -125 -155
-349 -299 -534 -343 -138 -33 -348 -38 -1249 -30 -481 4 -906 7 -945 7 -38 -1
-956 -4 -2040 -6 -1402 -4 -1996 -3 -2060 5 -96 12 -222 45 -295 78 -136 61
-323 218 -431 363 -101 136 -194 352 -219 509 -9 56 -11 499 -8 1796 3 1515 5
1724 18 1737 16 15 206 64 253 65 l27 1 1 -122z"/>
<path d="M1575 8648 c-120 -23 -257 -122 -309 -226 -125 -247 -35 -524 207
-641 254 -123 562 15 633 283 18 68 18 198 -1 269 -39 150 -172 273 -337 312
-70 16 -119 17 -193 3z m163 -240 c41 -12 88 -51 107 -89 31 -59 8 -66 -49
-14 -89 81 -199 69 -280 -29 -47 -58 -68 -50 -42 17 22 58 63 96 128 118 52
18 70 17 136 -3z"/>
<path d="M2800 8649 c-219 -36 -389 -260 -366 -484 13 -123 54 -211 138 -292
226 -218 581 -159 717 120 133 272 -36 609 -329 656 -73 12 -83 12 -160 0z
m168 -235 c83 -34 132 -110 132 -204 0 -168 -155 -277 -302 -210 -56 25 -69
36 -101 87 -22 34 -27 55 -27 104 0 90 17 134 66 178 68 60 157 77 232 45z"/>
<path d="M3745 3265 c-86 -16 -238 -61 -285 -85 -19 -9 -48 -23 -65 -31 -48
-22 -177 -110 -208 -141 -79 -81 -338 -296 -403 -334 -92 -54 -180 -77 -294
-77 -129 -1 -196 18 -265 72 -86 69 -134 94 -179 95 -59 1 -116 -38 -145 -100
-20 -42 -22 -59 -18 -158 5 -130 14 -173 58 -281 118 -296 316 -553 567 -737
224 -165 426 -259 678 -317 298 -69 656 -67 881 4 43 14 83 25 90 25 30 0 301
132 388 189 66 43 196 147 203 164 8 16 30 4 87 -46 33 -29 94 -75 135 -102
41 -26 86 -55 100 -64 33 -21 136 -71 230 -110 308 -128 712 -145 1093 -46 96
25 241 75 286 100 14 7 67 34 116 58 79 38 125 66 225 134 63 43 249 216 310
288 70 84 170 249 218 358 83 194 111 302 112 430 0 104 -12 134 -72 177 -73
53 -174 34 -249 -46 -64 -69 -211 -104 -355 -85 -151 21 -325 131 -584 370
-91 84 -181 151 -240 178 -14 6 -55 25 -91 42 -37 17 -76 31 -87 31 -12 0 -23
4 -26 9 -3 5 -18 11 -33 14 -16 3 -62 13 -103 22 -80 17 -252 14 -414 -6 -205
-26 -423 -133 -563 -276 -34 -35 -66 -63 -70 -63 -5 0 -33 25 -63 56 -70 73
-178 153 -257 193 -97 48 -261 90 -378 96 -227 12 -263 12 -330 0z m292 -445
c151 -21 263 -68 357 -153 l49 -44 -42 -53 c-55 -69 -76 -111 -101 -201 -40
-146 -15 -281 82 -431 16 -27 28 -54 25 -62 -11 -27 -132 -115 -228 -165 -184
-97 -301 -124 -544 -124 -149 0 -198 3 -285 22 -239 51 -366 106 -560 239 -95
66 -330 286 -330 310 0 8 15 12 43 12 79 0 211 21 296 46 155 47 241 96 415
238 213 175 283 229 341 263 93 55 264 105 382 112 12 0 57 -4 100 -9z m1656
-1 c96 -14 207 -53 287 -99 67 -39 119 -79 311 -240 142 -120 199 -160 289
-205 127 -64 295 -105 431 -105 27 0 49 -4 49 -9 0 -19 -80 -110 -161 -184
-228 -207 -421 -308 -719 -374 -57 -13 -121 -17 -265 -16 -178 1 -198 3 -309
31 -73 19 -158 50 -220 81 -103 50 -249 149 -259 175 -4 9 14 45 40 83 125
181 109 430 -38 608 -21 26 -39 51 -39 55 0 5 23 29 52 55 84 75 173 114 343
149 40 8 138 6 208 -5z m-810 -331 c46 -31 76 -69 83 -106 9 -45 -11 -47 -50
-5 -48 54 -117 87 -168 80 -54 -7 -114 -49 -146 -102 -32 -52 -47 -52 -46 -2
2 58 78 140 150 160 45 13 141 0 177 -25z"/>
</g>
</svg>
